<svg xmlns="http://www.w3.org/2000/svg" width="50" height="51" viewBox="0 0 50 51"><g><g><path fill="#00b2a0" d="M45.389 14.798l4.447 4.54-4.448 4.447-4.54-4.448 1.635-1.543c-3.268-2.724-7.261-4.268-11.528-4.268-3.631 0-7.172 1.09-10.077 3.178l.817.727-4.54 4.448-.726-.727c-4.448 6.536-4.176 15.431 1.089 21.605l1.544-1.544 4.447 4.448-4.447 4.448-4.54-4.448 1.634-1.724c-5.355-6.172-6.172-14.887-2.541-21.878l-6.899 6.899c.817 1.452.635 3.268-.545 4.448-.725.726-1.634 1.089-2.54 1.089-.908 0-1.815-.364-2.542-1a3.618 3.618 0 0 1 0-5.174c.725-.727 1.634-1.09 2.541-1.09.637 0 1.272.183 1.816.546l8.897-8.897-1.634-1.635 4.448-4.447 1.634 1.634 8.715-8.715c-.817-1.362-.635-3.176.545-4.448C28.776.543 29.685.18 30.59.18c.908 0 1.815.363 2.542 1.09a3.618 3.618 0 0 1 0 5.174c-.725.727-1.634 1.09-2.541 1.09a3.277 3.277 0 0 1-1.816-.545l-6.899 6.898a19.499 19.499 0 0 1 9.078-2.269c4.72 0 9.259 1.726 12.8 4.812l1.634-1.634zM19.061 43.755l-1.907 1.906 1.907 1.906 1.906-1.906zM29.32 5.172c.365.363.817.545 1.272.545.454 0 .909-.182 1.271-.545.727-.725.727-1.814 0-2.54a1.797 1.797 0 0 0-1.271-.546c-.455 0-.909.183-1.272.545-.726.725-.726 1.906 0 2.541zM4.9 32.132c.727-.635.727-1.814 0-2.54a1.797 1.797 0 0 0-1.271-.546c-.455 0-.91.18-1.272.545a1.797 1.797 0 0 0-.545 1.272c0 .544.182.999.545 1.271.364.363.817.545 1.272.545.454 0 .908-.182 1.271-.545zm14.071-14.704l-1.906-1.907-1.906 1.907 1.906 1.906zm28.324 1.906l-1.907-1.906-1.906 1.906 1.907 1.906z"/></g></g></svg>