<svg xmlns="http://www.w3.org/2000/svg" width="50" height="32" viewBox="0 0 50 32"><g><g><path fill="#00b2a0" d="M19.597 10.524L31.611.57v31.057l-11.939-9.66H7.098v9.808H5.464v-9.809H.56V10.524zM8.734 20.33v-8.173H2.196v8.173zm11.904-8.547l-.454.376h-9.817v8.172h9.883l9.726 7.87V4.046l-9.337 7.736z"/></g><g><path fill="#00b2a0" d="M42.917 2.01l-1.176 1.176c3.825 2.994 6.298 7.642 6.298 12.865 0 5.362-2.608 10.116-6.609 13.098l1.183 1.183c4.291-3.285 7.062-8.459 7.062-14.281 0-5.681-2.64-10.747-6.756-14.041z"/></g><g><path fill="#00b2a0" d="M37.667 7.28l-1.188 1.188c2.523 1.594 4.208 4.4 4.208 7.6 0 3.34-1.835 6.254-4.547 7.804l1.191 1.191c2.994-1.88 4.992-5.2 4.992-8.996a10.61 10.61 0 0 0-4.655-8.787z"/></g></g></svg>