<?xml version="1.0" standalone="no"?>
<!DOCTYPE svg PUBLIC "-//W3C//DTD SVG 20010904//EN"
 "http://www.w3.org/TR/2001/REC-SVG-20010904/DTD/svg10.dtd">
<svg version="1.0" xmlns="http://www.w3.org/2000/svg"
 width="700.000000pt" height="700.000000pt" viewBox="0 0 700.000000 700.000000"
 preserveAspectRatio="xMidYMid meet">
<metadata>
Created by potrace 1.14, written by Peter Selinger 2001-2017
</metadata>
<g transform="translate(0.000000,700.000000) scale(0.100000,-0.100000)"
fill="#000000" stroke="none">
<path d="M3278 6996 c-1 -2 -42 -6 -89 -10 -47 -4 -95 -8 -105 -10 -10 -2 -45
-7 -78 -11 -67 -8 -105 -14 -126 -20 -8 -3 -32 -7 -54 -11 -55 -8 -62 -10
-156 -34 -47 -12 -95 -24 -107 -26 -39 -7 -261 -84 -367 -126 -139 -55 -393
-180 -491 -242 -66 -42 -260 -170 -274 -182 -9 -7 -61 -48 -116 -91 -633 -500
-1094 -1254 -1245 -2038 -36 -187 -40 -215 -57 -395 -15 -163 -8 -592 12 -711
2 -13 6 -46 9 -74 17 -146 65 -366 123 -555 69 -228 222 -568 343 -763 30 -48
60 -95 65 -105 20 -35 124 -179 189 -262 139 -175 345 -386 517 -527 112 -92
305 -233 319 -233 6 0 10 -4 10 -10 0 -5 5 -10 11 -10 6 0 30 -14 54 -30 24
-17 47 -30 51 -30 4 0 15 -6 23 -14 9 -8 81 -47 161 -88 356 -182 733 -302
1109 -354 25 -3 57 -8 71 -10 163 -25 682 -25 842 1 13 2 46 7 73 10 74 11 87
13 120 19 17 4 46 9 65 12 224 37 570 152 828 275 714 342 1295 919 1641 1633
115 236 221 539 267 761 16 79 54 301 59 350 4 33 9 71 11 85 9 47 11 525 3
605 -15 165 -21 220 -24 225 -2 3 -6 30 -10 60 -3 30 -10 71 -15 90 -5 19 -12
51 -15 70 -23 135 -102 396 -177 585 -226 569 -633 1104 -1123 1477 -72 54
-234 168 -240 168 -2 0 -36 20 -75 45 -91 59 -325 179 -465 237 -239 100 -569
194 -785 223 -19 3 -46 7 -60 10 -13 2 -52 7 -86 11 -33 3 -74 8 -90 10 -33 5
-540 14 -546 10z m467 -841 c44 -4 87 -9 95 -10 8 -2 40 -6 70 -10 73 -9 284
-59 390 -92 102 -31 292 -109 392 -159 136 -68 391 -231 450 -287 7 -7 36 -30
63 -51 62 -50 287 -274 341 -341 101 -125 157 -203 237 -331 46 -74 135 -248
176 -345 86 -206 148 -432 185 -679 26 -172 27 -500 1 -685 -10 -76 -34 -213
-41 -237 -3 -9 -7 -26 -9 -38 -46 -238 -206 -608 -367 -849 -119 -178 -191
-266 -357 -431 -268 -267 -516 -430 -906 -595 -123 -53 -392 -124 -560 -150
-231 -35 -529 -39 -750 -10 -650 87 -1248 413 -1679 916 -88 102 -226 291
-226 309 0 4 -4 10 -8 12 -21 8 -154 264 -212 408 -12 30 -26 64 -30 75 -23
53 -75 224 -85 275 -2 8 -8 33 -14 55 -5 22 -13 54 -15 70 -3 17 -8 39 -10 50
-26 135 -39 278 -40 455 0 132 8 305 18 355 2 11 7 43 10 70 12 88 54 266 89
380 255 822 906 1483 1722 1748 108 36 256 75 305 83 14 2 35 5 47 8 11 2 43
8 70 12 26 3 57 8 68 10 11 2 63 7 115 10 52 4 96 7 98 9 5 5 292 -3 367 -10z"/>
</g>
</svg>
